<svg width="128" height="128" viewBox="0 0 128 128" fill="none" xmlns="http://www.w3.org/2000/svg">
<path d="M126.834 18.512C126.128 18.224 125.318 18.3915 124.785 18.936L86.8633 57.6605C83.63 54.198 79.5855 51.722 71.8307 52.7877L44.8875 56.4995C43.6017 56.6765 42.411 57.1705 41.4005 57.927L3.2145 18.936C2.68125 18.3915 1.872 18.224 1.1665 18.512C0.461 18.7997 0 19.486 0 20.248V60.7257C0 61.2615 0.22925 61.7715 0.6295 62.1275L3.941 65.0702C4.29825 65.3877 4.743 65.5437 5.18575 65.5437C5.70275 65.5437 6.2175 65.331 6.588 64.9142C7.27575 64.1402 7.206 62.955 6.43175 62.267L3.75 59.8835V24.8425L39.0358 60.8725C38.4963 62.0632 38.277 63.3742 38.4075 64.6992L28.8065 74.3007C27.3525 75.7547 26.314 77.5132 25.747 79.4315L13.116 68.2065C12.3418 67.5185 11.1567 67.5887 10.469 68.3627C9.78125 69.1367 9.851 70.322 10.6252 71.01L25.3032 84.054C25.5675 86.86 26.7868 89.4632 28.8043 91.4807L31.136 93.8127L29.3535 95.5952C26.6538 98.2952 26.6538 102.688 29.3535 105.388L29.399 105.433C30.4935 106.528 31.8665 107.179 33.292 107.386C33.1483 107.946 33.0735 108.528 33.0735 109.121C33.0735 110.974 33.795 112.716 35.105 114.026L35.1335 114.055C36.4435 115.365 38.1855 116.086 40.038 116.086C40.9692 116.086 41.8725 115.904 42.707 115.556C42.9837 116.804 43.6045 117.99 44.5732 118.959C45.9295 120.315 47.7105 120.993 49.492 120.993C49.9818 120.993 50.4713 120.94 50.9523 120.838C51.1238 122.347 51.785 123.81 52.9398 124.965C54.296 126.321 56.077 126.999 57.8585 126.999C59.531 126.999 61.2038 126.401 62.5247 125.205L63.2905 125.971C64.6423 127.323 66.4168 128 68.1945 128C69.9775 128 71.7637 127.318 73.1283 125.954C74.3255 124.757 74.9923 123.227 75.1308 121.659C75.5283 121.729 75.9303 121.765 76.333 121.765C78.116 121.765 79.9023 121.084 81.2665 119.719C82.4998 118.486 83.1695 116.9 83.279 115.283C83.6168 115.332 83.9575 115.358 84.2985 115.358C86.0815 115.358 87.8678 114.677 89.232 113.312C91.115 111.429 91.687 108.725 90.9508 106.341C92.353 106.1 93.6473 105.433 94.6868 104.394C95.9985 103.082 96.7207 101.338 96.7207 99.4832C96.7207 97.6282 95.9985 95.8842 94.6868 94.5727L93.9275 93.8132L98.0127 89.7277C99.1785 88.5617 100.094 87.2397 100.766 85.8295L107.064 80.2182C107.837 79.5292 107.906 78.344 107.217 77.5707C106.528 76.7972 105.342 76.729 104.57 77.418L102.134 79.5882C102.093 76.027 100.72 72.4775 98.008 69.7652L91.2262 62.9837C90.7515 62.3985 90.2912 61.8125 89.8455 61.245C89.6605 61.0092 89.4758 60.7747 89.291 60.5407L124.25 24.8425V59.885L111.156 71.5512C110.382 72.2402 110.314 73.4255 111.003 74.1987C111.373 74.6147 111.887 74.8265 112.404 74.8265C112.847 74.8265 113.293 74.67 113.65 74.3515L127.372 62.1257C127.772 61.77 128 61.2605 128 60.7257V20.248C128 19.486 127.539 18.7997 126.834 18.512ZM32.0052 102.737C31.4057 102.137 31.0755 101.34 31.0755 100.492C31.0755 99.6442 31.4057 98.847 32.0052 98.2475L40.9953 89.257C41.618 88.6342 42.436 88.3227 43.254 88.3227C44.072 88.3227 44.89 88.6342 45.5127 89.257C45.5127 89.257 45.5298 89.274 45.5298 89.2742C46.1333 89.8775 46.4655 90.6797 46.4655 91.533C46.4655 92.3862 46.1333 93.1885 45.5298 93.7917L36.5397 102.782C35.9403 103.382 35.1432 103.712 34.2952 103.712C33.4473 103.712 32.6502 103.382 32.0508 102.782L32.0052 102.737ZM37.7853 111.403L37.7567 111.375C36.5145 110.132 36.5145 108.111 37.7567 106.869L46.7298 97.895C47.3548 97.27 48.176 96.9572 48.997 96.9572C49.818 96.9572 50.639 97.27 51.2643 97.895C52.5143 99.1452 52.5143 101.179 51.2643 102.43L42.2912 111.403C41.049 112.646 39.0275 112.646 37.7853 111.403ZM49.4922 117.247C48.636 117.247 47.8307 116.913 47.225 116.307C45.975 115.057 45.975 113.023 47.225 111.773L55.3662 103.631C55.9893 103.008 56.8085 102.697 57.6273 102.697C58.4415 102.697 59.2552 103.005 59.8745 103.62L59.8805 103.626C60.486 104.228 60.8205 105.029 60.8225 105.883C60.8245 106.736 60.494 107.54 59.8915 108.144L51.7573 116.309C51.1525 116.914 50.3485 117.247 49.4927 117.247H49.4922ZM55.5915 122.313C54.3415 121.063 54.3415 119.029 55.5915 117.779L63.7345 109.635C64.3542 109.015 65.1688 108.704 65.9863 108.704C66.8 108.704 67.6168 109.012 68.247 109.632C68.8525 110.234 69.187 111.035 69.189 111.889C69.191 112.742 68.8605 113.546 68.258 114.15L60.1237 122.315C58.875 123.565 56.8418 123.564 55.5915 122.313ZM70.4597 123.319C69.2145 124.565 67.188 124.565 65.9423 123.319L65.1783 122.555L69.7045 118.012L70.4768 118.785C71.7223 120.03 71.7222 122.057 70.4597 123.319ZM92.0182 101.759C91.415 102.363 90.6127 102.695 89.7598 102.695C88.9068 102.695 88.1045 102.362 87.501 101.759L78.511 92.7687C77.7788 92.0365 76.5915 92.0365 75.8595 92.7687C75.1273 93.501 75.1273 94.6882 75.8595 95.4205L77.5872 97.1485C77.5885 97.1497 77.5895 97.151 77.5908 97.1522L86.5807 106.143C87.826 107.388 87.826 109.415 86.5638 110.678C85.3185 111.923 83.2917 111.923 82.0465 110.678L73.0565 101.687C73.0558 101.686 73.0547 101.686 73.054 101.685L72.277 100.908C71.5448 100.176 70.3575 100.176 69.6255 100.908C68.8933 101.64 68.8933 102.827 69.6255 103.56L78.6155 112.55C79.8607 113.796 79.8608 115.822 78.5985 117.085C77.3533 118.33 75.3265 118.33 74.0813 117.085L72.1383 115.142C72.6645 114.149 72.9425 113.035 72.9398 111.88C72.9352 110.023 72.2077 108.281 70.8913 106.972L70.8873 106.968C69.162 105.253 66.75 104.636 64.5287 105.111C64.3547 103.544 63.659 102.094 62.5247 100.966L62.5228 100.964C60.7238 99.1755 58.178 98.5797 55.88 99.1722C55.675 97.7337 55.0205 96.3475 53.9162 95.243C52.8137 94.1405 51.4303 93.486 49.9943 93.2797C50.1398 92.7157 50.2158 92.1302 50.2158 91.5325C50.2158 89.6775 49.4933 87.9335 48.1818 86.622L48.1647 86.605C45.4572 83.8972 41.0518 83.8972 38.3442 86.605L33.7882 91.1612L31.4565 88.8292C28.183 85.5555 28.1842 80.2277 31.459 76.9525L39.8963 68.5147C40.3113 69.0617 40.8025 69.5562 41.3652 69.9817C42.9765 71.1997 44.9655 71.7165 46.9665 71.4365L60.2002 69.5867C61.023 69.4717 61.8615 69.7772 62.4463 70.403C64.3867 72.4805 66.841 73.9457 69.5062 74.6937L88.7978 93.9865C88.8005 93.9892 88.8037 93.9917 88.8067 93.9945L92.0365 97.2245C92.6397 97.828 92.972 98.63 92.972 99.4832C92.971 100.337 92.639 101.139 92.0182 101.759ZM95.357 72.4175C99.3993 76.4602 99.4012 83.036 95.3617 87.076L91.2765 91.1615L85.6975 85.582C85.6945 85.579 85.6912 85.5765 85.6882 85.5737L75.2897 75.1747C75.4327 75.1592 75.5758 75.142 75.7188 75.1222C76.7448 74.981 77.4618 74.0347 77.3203 73.0087C77.179 71.9827 76.2323 71.2647 75.207 71.407C71.4938 71.9187 67.7482 70.586 65.186 67.843C63.7687 66.3252 61.71 65.589 59.6808 65.8727L46.447 67.7225C45.44 67.8635 44.4372 67.6032 43.626 66.99C42.9258 66.4607 42.4417 65.723 42.2342 64.8835C42.23 64.867 42.2268 64.8505 42.2223 64.834C42.1955 64.7197 42.173 64.604 42.1567 64.4865C42.0182 63.4842 42.2788 62.4882 42.8908 61.6815C43.5033 60.874 44.3943 60.3532 45.3995 60.2145L72.3422 56.5027C80.4745 55.3845 83.0303 58.638 86.8972 63.5615C87.3715 64.1655 87.862 64.7897 88.3783 65.4245C88.4187 65.4742 88.4615 65.5217 88.507 65.567L95.357 72.4175Z" fill="#2C2D2F"/>
<path d="M36.2708 26.0497C36.763 26.1839 37.2628 26.2504 37.7595 26.2504C38.3945 26.2504 39.0235 26.1397 39.625 25.9254V42.9709H36.5C35.4645 42.9709 34.625 43.8104 34.625 44.8462C34.625 45.8817 35.4645 46.7214 36.5 46.7214H91.5C92.5355 46.7214 93.375 45.8819 93.375 44.8462C93.375 43.8107 92.5355 42.9709 91.5 42.9709H88.375V25.9239C88.9748 26.1362 89.6073 26.2482 90.245 26.2482H90.246C92.2613 26.2482 94.134 25.1619 95.133 23.4132C95.8785 22.1087 96.0713 20.5919 95.676 19.1422C95.2805 17.6924 94.3445 16.4837 93.04 15.7382L86.7488 12.1429C85.8495 11.6294 84.7045 11.9417 84.1905 12.8407C83.6768 13.7399 83.989 14.8854 84.8883 15.3992L91.1798 18.9944C91.6145 19.2429 91.9265 19.6459 92.0585 20.1289C92.1903 20.6122 92.126 21.1177 91.8775 21.5524C91.5443 22.1357 90.9193 22.4979 90.246 22.4979C89.919 22.4979 89.6073 22.4147 89.3195 22.2502L64.9305 8.31316C64.3538 7.98391 63.6465 7.98391 63.07 8.31316L38.6805 22.2504C38.2458 22.4992 37.7405 22.5634 37.2578 22.4314C36.7745 22.2997 36.3715 21.9874 36.123 21.5524C35.8745 21.1177 35.8103 20.6122 35.942 20.1289C36.0738 19.6457 36.3858 19.2429 36.8208 18.9944L63.0703 3.99391C63.644 3.66591 64.3568 3.66591 64.9305 3.99391L77.2143 11.0137C78.1138 11.5279 79.2588 11.2152 79.7725 10.3159C80.2863 9.41666 79.974 8.27116 79.0748 7.75741L66.7908 0.737906C65.0693 -0.246094 62.9305 -0.245844 61.2093 0.737906L34.96 15.7384C33.6555 16.4839 32.7193 17.6927 32.324 19.1424C31.9285 20.5922 32.1215 22.1089 32.867 23.4134C33.6125 24.7182 34.8213 25.6544 36.2708 26.0497ZM72.9038 42.9697H55.1538V28.1237H72.9038V42.9697ZM64 12.1009L84.625 23.8872V42.9697H76.6538V27.2487C76.6538 25.6632 75.364 24.3734 73.7788 24.3734H54.2788C52.6935 24.3734 51.4038 25.6632 51.4038 27.2487V42.9697H43.375V23.8872L64 12.1009Z" fill="#2C2D2F"/>
</svg>
