<svg width="129" height="128" viewBox="0 0 129 128" fill="none" xmlns="http://www.w3.org/2000/svg">
<g clip-path="url(#clip0_134_1914)">
<path d="M123.566 57.0166H88.1452V52.7788C88.1452 49.0456 85.108 46.0083 81.3747 46.0083C77.6415 46.0083 74.6042 49.0456 74.6042 52.7788V57.0166H39.1838C36.633 57.0166 34.5282 58.9621 34.2752 61.4471C34.2585 61.6128 34.2497 61.7808 34.2497 61.9508V94.1816C34.2497 96.9023 36.4632 99.1158 39.1838 99.1158H45.1575V112.554H19.411V47.4001L62.4863 18.7463L105.561 47.4003V52.6041C105.561 53.6156 106.381 54.4353 107.393 54.4353C108.404 54.4353 109.224 53.6156 109.224 52.6041V49.8366L114.774 53.5286C116.874 54.9256 119.588 54.9256 121.688 53.5286C123.431 52.3688 124.472 50.4261 124.472 48.3318C124.472 46.2378 123.431 44.2951 121.688 43.1356L64.2598 4.93356C63.1823 4.21681 61.7903 4.21681 60.713 4.93356L27.3918 27.0993C26.5498 27.6593 26.321 28.7961 26.8813 29.6383C27.4415 30.4803 28.5785 30.7091 29.4202 30.1486L62.4863 8.15256L119.66 46.1848C120.391 46.6713 120.81 47.4538 120.81 48.3321C120.81 49.2103 120.391 49.9928 119.66 50.4793C118.792 51.0566 117.671 51.0566 116.803 50.4793L64.2598 15.5271C63.1823 14.8106 61.7903 14.8101 60.713 15.5271L8.1695 50.4793C7.302 51.0561 6.18075 51.0566 5.313 50.4791C4.58175 49.9928 4.1625 49.2103 4.1625 48.3321C4.1625 47.4538 4.58175 46.6713 5.313 46.1848L19.9468 36.4503C20.7887 35.8903 21.0175 34.7536 20.4573 33.9113C19.897 33.0696 18.7603 32.8406 17.9182 33.4011L3.2845 43.1353C1.541 44.2951 0.5 46.2376 0.5 48.3321C0.5 50.4266 1.541 52.3691 3.2845 53.5286C4.33475 54.2273 5.53775 54.5766 6.7415 54.5766C7.94475 54.5763 9.1485 54.2271 10.1982 53.5286L15.7485 49.8366V112.554H8.73025C5.6835 112.554 3.205 115.032 3.205 118.079C3.205 121.126 5.6835 123.604 8.73025 123.604H116.242C119.289 123.604 121.768 121.125 121.768 118.079C121.768 115.032 119.289 112.554 116.242 112.554H109.224V103.528C109.224 102.516 108.404 101.697 107.393 101.697C106.382 101.697 105.562 102.516 105.562 103.528V112.554H88.1455V99.1158H123.566C126.287 99.1158 128.5 96.9023 128.5 94.1816V61.9508C128.5 59.2301 126.286 57.0166 123.566 57.0166ZM78.2667 52.7788C78.2667 51.0651 79.661 49.6708 81.3747 49.6708C83.0885 49.6708 84.4827 51.0651 84.4827 52.7788V57.0166H78.2667V52.7788ZM74.6042 119.942H8.73025C7.70325 119.942 6.8675 119.106 6.8675 118.079C6.8675 117.052 7.703 116.216 8.73025 116.216H74.6042V119.942ZM74.6042 112.554H48.82V99.1158H74.6042V112.554ZM84.4827 119.942H78.2667V99.1156H84.4827V119.942ZM116.242 116.216C117.269 116.216 118.105 117.052 118.105 118.079C118.105 119.106 117.27 119.942 116.242 119.942H88.1452V116.216H116.242ZM123.566 95.4533H39.1838C38.4825 95.4533 37.9123 94.8831 37.9123 94.1816V61.9508C37.9123 61.2498 38.4825 60.6793 39.1838 60.6793L123.566 60.6791C124.267 60.6791 124.838 61.2493 124.838 61.9508V94.1816C124.838 94.8828 124.267 95.4533 123.566 95.4533Z" fill="#2C2D2F"/>
<path d="M62.4862 26.8083C56.125 26.8083 50.9497 31.9836 50.9497 38.3448C50.9497 44.7061 56.125 49.8816 62.4862 49.8816C68.8475 49.8816 74.0227 44.7063 74.0227 38.3448C74.0227 31.9838 68.8475 26.8083 62.4862 26.8083ZM60.655 46.0016C57.7795 45.3138 55.513 43.0451 54.8277 40.1684H60.655V46.0016ZM60.655 36.5058H54.8315C55.521 33.6363 57.7847 31.3748 60.655 30.6883V36.5058ZM64.3175 30.6883C67.188 31.3748 69.4517 33.6366 70.141 36.5058H64.3175V30.6883ZM64.3175 46.0016V40.1684H70.1445C69.4595 43.0451 67.193 45.3136 64.3175 46.0016Z" fill="#2C2D2F"/>
<path d="M64.474 85.6591L60.9975 79.2112C62.9875 78.6009 64.4735 76.9557 64.4735 73.9039C64.4735 69.6849 61.6608 68.3584 58.1848 68.3584H52.931C52.2678 68.3584 51.8165 68.8626 51.8165 69.4196V86.6674C51.8165 87.3839 52.692 87.7554 53.5413 87.7554C54.4168 87.7554 55.266 87.3839 55.266 86.6674V79.7417H57.495L61.263 87.0654C61.5285 87.5961 61.9795 87.8882 62.4573 87.8882C63.4655 87.8882 64.6065 86.9594 64.6065 86.0839C64.6065 85.9779 64.58 85.7919 64.474 85.6591ZM58.1848 77.0354H55.266V71.3834H58.1848C59.9098 71.3834 61.024 72.1264 61.024 74.2226C61.024 76.3191 59.9095 77.0354 58.1848 77.0354Z" fill="#2C2D2F"/>
<path d="M78.4295 84.7304H70.92V79.3967H74.9532C75.6962 79.3967 76.0412 78.6804 76.0412 78.0699C76.0412 77.3537 75.643 76.6899 74.9532 76.6899H70.92V71.3829H78.4295V71.3834C79.1192 71.3834 79.5175 70.6669 79.5175 69.8442C79.5175 69.1279 79.1725 68.3584 78.4295 68.3584H68.983C68.2135 68.3584 67.4705 68.7299 67.4705 69.4464V86.6674C67.4705 87.3839 68.2135 87.7554 68.983 87.7554H78.4295C79.1725 87.7554 79.5175 86.9857 79.5175 86.2694C79.5175 85.4467 79.1192 84.7304 78.4295 84.7304Z" fill="#2C2D2F"/>
<path d="M93.2085 68.3584C92.333 68.3584 91.4837 68.6766 91.4837 69.4196V80.0866L86.3622 70.1894C85.5397 68.6236 85.0355 68.3584 83.7885 68.3584C82.913 68.3584 82.0637 68.7034 82.0637 69.4464V86.6674C82.0637 87.3839 82.9127 87.7554 83.7885 87.7554C84.6375 87.7554 85.5132 87.3839 85.5132 86.6674V76.0004L91.2185 86.6674C91.6697 87.4899 92.386 87.7554 93.2085 87.7554C94.0575 87.7554 94.9332 87.3839 94.9332 86.6674V69.4199C94.9332 68.6769 94.0577 68.3584 93.2085 68.3584Z" fill="#2C2D2F"/>
<path d="M109.686 68.3584H98.4613C97.7183 68.3584 97.3733 69.1546 97.3733 69.8974C97.3733 70.7464 97.7715 71.4632 98.4613 71.4632H102.362V86.6676C102.362 87.3841 103.211 87.7557 104.087 87.7557C104.936 87.7557 105.812 87.3841 105.812 86.6676V71.4632H109.686C110.375 71.4632 110.773 70.7201 110.773 69.8974C110.773 69.1546 110.429 68.3584 109.686 68.3584Z" fill="#2C2D2F"/>
</g>
<defs>
<clipPath id="clip0_134_1914">
<rect width="128" height="128" fill="white" transform="translate(0.5)"/>
</clipPath>
</defs>
</svg>
