<svg width="129" height="118" viewBox="0 0 129 118" fill="none" xmlns="http://www.w3.org/2000/svg">
<path d="M127.138 74.4832C124.703 70.9052 119.8 69.9582 116.211 72.3702L99.8763 83.3022L99.8288 49.2747L105.504 54.591C106.711 55.7212 108.284 56.3432 109.936 56.3432C109.939 56.3432 109.942 56.3432 109.946 56.3432C111.729 56.3407 113.451 55.5932 114.67 54.292C115.854 53.0277 116.476 51.3782 116.419 49.6467C116.363 47.9152 115.635 46.3095 114.371 45.1252L103.612 35.0467C102.876 34.3567 101.719 34.3945 101.03 35.131C100.34 35.8675 100.378 37.0235 101.114 37.7135L111.873 47.792C112.425 48.309 112.742 49.01 112.767 49.7657C112.791 50.5215 112.521 51.2417 112.003 51.7935C111.463 52.37 110.731 52.688 109.94 52.689C109.939 52.689 109.938 52.689 109.936 52.689C109.215 52.689 108.528 52.4175 108.002 51.924L108.002 51.9237L65.281 11.904C64.577 11.2447 63.4815 11.2457 62.7793 11.9075L20.1698 52.047C19.6195 52.5655 18.9 52.837 18.144 52.816C17.388 52.7935 16.6863 52.4777 16.1678 51.927C15.6493 51.3767 15.376 50.6572 15.3988 49.9015C15.4213 49.1455 15.737 48.4437 16.2872 47.9252L62.0815 4.78574C63.167 3.76299 64.87 3.76049 65.9583 4.78049L92.75 29.8785C93.4863 30.5682 94.6425 30.5307 95.3325 29.7942C96.0222 29.0577 95.9845 27.9017 95.2483 27.2117L68.4567 2.11374C65.9635 -0.22226 62.0628 -0.21701 59.576 2.12599L44.9162 15.936L44.9123 13.4727C44.9113 12.6962 44.6077 11.9667 44.058 11.4187C43.5092 10.8715 42.7808 10.5702 42.0057 10.5702C42.0042 10.5702 42.003 10.5702 42.0015 10.5702L31.5147 10.585C30.7382 10.586 30.009 10.8895 29.4608 11.4392C28.9128 11.989 28.6112 12.7192 28.6125 13.496L28.6415 31.2677L13.7817 45.266C12.5208 46.4537 11.798 48.0615 11.7463 49.793C11.6945 51.5245 12.3203 53.1725 13.508 54.433C14.6955 55.694 16.3032 56.417 18.035 56.4687C18.1012 56.4707 18.1675 56.4717 18.2337 56.4717C19.8925 56.4717 21.4633 55.8492 22.6755 54.7067L28.3377 49.3727L28.3603 65.4455C26.5282 65.1787 24.6747 65.0387 22.8127 65.0387H19.6865V63.9432C19.6865 60.2655 16.6943 57.2732 13.0165 57.2732H7.17C3.49225 57.273 0.5 60.265 0.5 63.943V92.5725C0.5 93.5815 1.318 94.3995 2.327 94.3995C3.336 94.3995 4.154 93.5815 4.154 92.5725V63.943C4.154 62.28 5.507 60.927 7.17 60.927H13.0162C14.6792 60.927 16.0323 62.28 16.0323 63.943V66.8655V104.314V107.208C16.0323 108.871 14.6792 110.224 13.0162 110.224H7.17C5.507 110.224 4.154 108.871 4.154 107.208V104.011C4.154 103.002 3.336 102.184 2.327 102.184C1.318 102.184 0.5 103.002 0.5 104.011V107.208C0.5 110.886 3.49225 113.878 7.17 113.878H13.0162C16.694 113.878 19.6863 110.886 19.6863 107.208V106.96L46.4422 117.092C46.4917 117.111 46.542 117.127 46.593 117.141C47.7562 117.47 48.919 117.635 50.067 117.635C50.688 117.635 51.3047 117.586 51.9152 117.49L91.2355 111.822C91.2447 111.821 91.2538 111.819 91.263 111.818C94.606 111.284 97.7598 109.871 100.383 107.731C100.406 107.713 100.428 107.693 100.45 107.674L125.853 84.8267C128.811 82.2005 129.363 77.7537 127.138 74.4832ZM41.2593 14.2255L41.2677 19.373L32.2897 27.8305L32.2675 14.2377L41.2593 14.2255ZM64.0353 15.744L96.1697 45.847L96.2255 85.7452L91.0527 89.2072L85.575 88.9L85.4303 87.445C84.9205 82.3205 81.1375 78.1982 76.1352 77.2145L76.1022 53.4782C76.0997 51.6567 74.6168 50.1765 72.7955 50.1765C72.794 50.1765 72.7927 50.1765 72.791 50.1765L55.3775 50.201C54.4942 50.2022 53.6642 50.5472 53.0407 51.1727C52.417 51.798 52.0742 52.629 52.0755 53.512L52.1045 74.2072C48.6553 73.4187 45.3618 72.1165 42.2825 70.3152C41.8983 70.0905 41.5103 69.8735 41.119 69.6625C40.9665 69.5802 40.8115 69.503 40.6577 69.4227C40.4198 69.2985 40.1823 69.1735 39.9417 69.0542C39.7502 68.9592 39.5565 68.8692 39.3635 68.7775C39.1587 68.6802 38.9543 68.582 38.748 68.4882C38.538 68.393 38.3262 68.3022 38.1147 68.2107C37.9215 68.1272 37.7282 68.0432 37.5337 67.963C37.3162 67.8732 37.0975 67.787 36.8785 67.7012C36.6843 67.6252 36.4897 67.5497 36.2945 67.4767C36.0777 67.3957 35.86 67.3175 35.6418 67.2407C35.437 67.1685 35.232 67.098 35.026 67.0292C34.817 66.9595 34.6075 66.8912 34.397 66.825C34.1727 66.7542 33.9475 66.6867 33.722 66.62C33.5283 66.563 33.3348 66.506 33.14 66.452C32.8857 66.3812 32.6302 66.315 32.3745 66.2495C32.2548 66.2187 32.1357 66.184 32.0152 66.1542L31.987 45.9347L64.0353 15.744ZM72.4808 76.7572L57.1995 74.998L55.7598 74.8322L55.7303 53.8545L72.4488 53.831L72.4808 76.7572ZM123.418 82.1025L98.0405 104.927C95.9258 106.642 93.389 107.776 90.7002 108.207L51.397 113.873C51.3887 113.874 51.3808 113.875 51.3725 113.877L51.3452 113.881C50.1545 114.069 48.9145 113.99 47.6592 113.645L19.6865 103.052V68.6925H22.8127C25.474 68.6925 28.1173 68.9997 30.6912 69.5965C30.787 69.6187 30.8825 69.6415 30.978 69.6645C31.2943 69.7407 31.6098 69.8192 31.9237 69.9042C31.9513 69.9117 31.9785 69.9197 32.006 69.9272C32.3208 70.0132 32.6343 70.104 32.9468 70.1987C33.0028 70.2157 33.059 70.2325 33.1147 70.2497C33.4473 70.3525 33.7782 70.4597 34.1075 70.5722C34.1415 70.584 34.1753 70.596 34.2093 70.6077C34.895 70.8445 35.574 71.1027 36.2445 71.3822C36.281 71.3975 36.3175 71.4127 36.354 71.4282C36.6883 71.5687 37.0205 71.714 37.3505 71.865C37.3592 71.869 37.3682 71.8732 37.377 71.8775C37.696 72.024 38.0127 72.176 38.3275 72.3322C38.3645 72.3505 38.4018 72.3685 38.4388 72.387C38.7463 72.5407 39.0513 72.7 39.3545 72.863C39.4118 72.8937 39.4688 72.9252 39.526 72.9562C39.832 73.123 40.1362 73.293 40.4375 73.4692C44.7853 76.0125 49.5182 77.6597 54.5052 78.3655C54.521 78.3677 54.5365 78.3697 54.5522 78.3715L75.0225 80.7282C75.1357 80.7445 75.2483 80.7632 75.36 80.7842C78.3735 81.3502 80.752 83.577 81.5478 86.4767C81.6657 86.9062 81.7487 87.3507 81.7943 87.8065L81.8755 88.624L43.5105 85.2627C42.506 85.175 41.619 85.9182 41.531 86.9232C41.4427 87.9285 42.1865 88.8147 43.1915 88.9027L83.752 92.4565C83.7617 92.4572 83.7712 92.457 83.7807 92.4577C83.7902 92.4585 83.7995 92.46 83.8092 92.4607L91.4585 92.89C91.4928 92.892 91.5268 92.8927 91.5608 92.8927C91.597 92.8927 91.6327 92.887 91.6687 92.8847C91.7095 92.8822 91.7503 92.8807 91.7907 92.8757C91.8452 92.8687 91.8985 92.857 91.952 92.8452C91.9903 92.8367 92.0288 92.8305 92.0663 92.8195C92.1248 92.8027 92.181 92.78 92.2377 92.7572C92.2682 92.745 92.2998 92.7357 92.3298 92.7217C92.415 92.6822 92.498 92.6367 92.577 92.5837L99.07 88.2385L99.0707 88.2377L118.246 75.4047C120.175 74.108 122.809 74.6167 124.117 76.5387C125.312 78.2952 125.016 80.684 123.418 82.1025Z" fill="#2C2D2F"/>
</svg>
